<svg width="29" height="30" fill="none" xmlns="http://www.w3.org/2000/svg"><path d="M12.8 11.618v-5.4c0-.745.605-1.35 1.35-1.35h5.4c.746 0 1.35.605 1.35 1.35v5.4c0 .746.605 1.35 1.35 1.35h5.4c.746 0 1.35.605 1.35 1.35v5.4a1.35 1.35 0 0 1-1.35 1.35h-5.4a1.35 1.35 0 0 0-1.35 1.35v5.4a1.35 1.35 0 0 1-1.35 1.35h-5.4a1.35 1.35 0 0 1-1.35-1.35v-5.4a1.35 1.35 0 0 0-1.35-1.35h-5.4a1.35 1.35 0 0 1-1.35-1.35v-5.4c0-.745.605-1.35 1.35-1.35h5.4a1.35 1.35 0 0 0 1.35-1.35Z" fill="#E6E6F8"/><path d="M10.1 8.581v-5.4c0-.745.604-1.35 1.35-1.35h5.4c.746 0 1.35.605 1.35 1.35v5.4c0 .746.604 1.35 1.35 1.35h5.4c.746 0 1.35.605 1.35 1.35v5.4a1.35 1.35 0 0 1-1.35 1.35h-5.4a1.35 1.35 0 0 0-1.35 1.35v5.4a1.35 1.35 0 0 1-1.35 1.35h-5.4a1.35 1.35 0 0 1-1.35-1.35v-5.4a1.35 1.35 0 0 0-1.35-1.35h-5.4A1.35 1.35 0 0 1 2 16.681v-5.4c0-.745.604-1.35 1.35-1.35h5.4a1.35 1.35 0 0 0 1.35-1.35Z" stroke="#5A58CF" stroke-width="2.7" stroke-linejoin="round"/></svg>