<svg width="29" height="28" fill="none" xmlns="http://www.w3.org/2000/svg"><path d="M25.836 4.484H6.854a3.219 3.219 0 0 0-2.161.933A3.423 3.423 0 0 0 3.69 7.603v10.84a3.35 3.35 0 0 0 .935 2.301 3.143 3.143 0 0 0 2.229.966h7.622l6.47 5.494V21.71h4.89a3.143 3.143 0 0 0 2.23-.966A3.35 3.35 0 0 0 29 18.444V7.75a3.35 3.35 0 0 0-.935-2.302 3.143 3.143 0 0 0-2.229-.965Z" fill="#FEEFEF"/><path d="m23.146 1.796.008-.897h-.008v.897Zm-18.982 0V.899h-.028l.028.897ZM1 4.914l-.894-.066-.003.033v.033H1Zm0 10.84H.103v.008L1 15.754Zm3.164 3.267-.008.897h.008v-.897Zm7.622 0 .58-.683-.251-.213h-.33v.896Zm6.47 5.495-.58.683a.897.897 0 0 0 1.477-.683h-.896Zm0-5.495v-.896h-.896v.896h.897Zm4.89 0v.897h.008l-.008-.897Zm3.164-3.267.897.008v-.008h-.897Zm0-10.691h.897v-.008l-.897.008ZM23.146.899H4.164v1.793h18.982V.9ZM4.136.9A4.115 4.115 0 0 0 1.373 2.09l1.26 1.277c.425-.42.98-.657 1.558-.675L4.136.9ZM1.373 2.09A4.32 4.32 0 0 0 .106 4.848l1.788.132a2.526 2.526 0 0 1 .738-1.613L1.373 2.09ZM.103 4.914v10.84h1.794V4.914H.103Zm0 10.848a4.247 4.247 0 0 0 1.188 2.918l1.288-1.248a2.454 2.454 0 0 1-.682-1.685l-1.794.015Zm1.188 2.918a4.039 4.039 0 0 0 2.865 1.238l.016-1.793a2.246 2.246 0 0 1-1.593-.693L1.29 18.68Zm2.873 1.238h7.622v-1.793H4.164v1.793Zm7.041-.213 6.472 5.494 1.16-1.367-6.471-5.494-1.16 1.367Zm7.948 4.81v-5.494H17.36v5.495h1.793Zm-.896-4.597h4.89v-1.793h-4.89v1.793Zm4.897 0a4.039 4.039 0 0 0 2.866-1.238l-1.289-1.248c-.428.442-1 .688-1.593.693l.016 1.793Zm2.866-1.238a4.246 4.246 0 0 0 1.187-2.918l-1.793-.015a2.454 2.454 0 0 1-.683 1.685l1.288 1.248Zm1.187-2.926V5.063h-1.794v10.691h1.794Zm0-10.699a4.247 4.247 0 0 0-1.188-2.918l-1.288 1.248c.43.442.677 1.047.683 1.685l1.793-.015Zm-1.188-2.918A4.039 4.039 0 0 0 23.154.9l-.016 1.793c.593.006 1.165.25 1.593.693l1.288-1.248Z" fill="#CF6D58"/><path d="M16.345 17.999s3.739-2.525 4.602-4.158c.863-1.485 1.006-3.564-.863-4.603a2.7 2.7 0 0 0-2.265-.161c-.367.14-.701.36-.98.643a2.865 2.865 0 0 0-.638 1.003 2.962 2.962 0 0 0-.66-.972 2.856 2.856 0 0 0-.975-.626 2.786 2.786 0 0 0-2.248.113c-1.725 1.039-1.582 3.118-.863 4.603 1.15 1.633 4.89 4.158 4.89 4.158Z" fill="#FEEFEF"/><path d="m13.655 15.31-.501.742.501.339.502-.339-.502-.743Zm4.602-4.159-.775-.45-.01.016-.008.016.793.418Zm-.863-4.603.436-.783-.002-.001-.433.784Zm-3.882 1.485-.827.348a.897.897 0 0 0 1.666-.033l-.84-.315ZM9.629 6.548l-.402-.802-.03.016-.03.018.462.768Zm-.863 4.603-.807.391.032.066.042.06.733-.517Zm4.89 4.158.501.743h.001l.003-.002.01-.007.033-.023.125-.086a35.396 35.396 0 0 0 1.864-1.391 21.16 21.16 0 0 0 1.611-1.415c.49-.483.965-1.025 1.246-1.558l-1.585-.837c-.15.284-.466.67-.921 1.12-.442.436-.964.883-1.472 1.29a33.59 33.59 0 0 1-1.88 1.397l-.03.02-.007.005-.001.001.501.743Zm5.376-3.707c.503-.865.825-1.947.71-3.015-.12-1.11-.71-2.154-1.912-2.822l-.871 1.567c.668.371.94.887 1 1.447.065.602-.117 1.302-.477 1.922l1.55.9Zm-1.204-5.838a3.596 3.596 0 0 0-1.486-.442l-.127 1.789c.26.018.514.093.745.222l.868-1.57Zm-1.486-.442a3.581 3.581 0 0 0-1.533.228l.64 1.675c.246-.094.507-.133.766-.114l.127-1.789Zm-1.533.228a3.65 3.65 0 0 0-1.3.852l1.28 1.257c.19-.193.415-.34.66-.434l-.64-1.675Zm-1.3.852a3.76 3.76 0 0 0-.837 1.316l1.679.63c.098-.261.248-.495.438-.689l-1.28-1.257Zm.829 1.284a3.86 3.86 0 0 0-.859-1.265l-1.253 1.282c.194.19.35.42.46.678l1.652-.695Zm-.859-1.265a3.752 3.752 0 0 0-1.282-.823l-.64 1.675c.246.094.474.24.669.43l1.253-1.282Zm-1.282-.823a3.683 3.683 0 0 0-1.5-.239l.09 1.791a1.89 1.89 0 0 1 .77.123l.64-1.675Zm-1.5-.239a3.693 3.693 0 0 0-1.47.387l.803 1.604a1.9 1.9 0 0 1 .757-.2l-.09-1.79Zm-1.53.421c-1.136.684-1.662 1.732-1.778 2.807-.112 1.041.157 2.102.57 2.955l1.614-.781c-.306-.632-.469-1.353-.4-1.982.063-.596.328-1.107.918-1.463L9.166 5.78Zm-1.134 5.888c.664.942 1.993 2.057 3.06 2.884a44.86 44.86 0 0 0 2.015 1.469l.033.023a.581.581 0 0 0 .01.006l.002.001v.001l.502-.743.502-.743-.002-.001-.007-.005-.03-.02-.116-.08a42.985 42.985 0 0 1-1.811-1.326c-1.09-.844-2.205-1.808-2.692-2.499l-1.466 1.033Z" fill="#CF6D58"/></svg>