<svg width="31" height="32" fill="none" xmlns="http://www.w3.org/2000/svg"><path d="M27.936 3.377C25.29.731 21.074.661 18.514 3.221L2.874 18.86c-2.559 2.56-2.489 6.776.157 9.422 2.646 2.646 6.863 2.716 9.422.157l15.64-15.64c2.586-2.533 2.49-6.776-.157-9.422Z" stroke="#ECC75C" stroke-width="1.81" stroke-miterlimit="10" stroke-linejoin="round"/><path d="M27.936 3.377C25.29.731 21.074.661 18.514 3.221l-4.633 4.633c-2.56 2.56-2.49 6.776.156 9.422 2.647 2.646 6.863 2.716 9.423.156l4.633-4.633c2.586-2.533 2.49-6.776-.157-9.422Z" stroke="#ECC75C" stroke-width="1.81" stroke-miterlimit="10" stroke-linejoin="round"/><path d="M26.362 5.745c1.244 1.244 2 2.922.004 4.918" stroke="#ECC75C" stroke-width="1.81" stroke-miterlimit="10" stroke-linecap="round" stroke-linejoin="round"/></svg>