<svg width="28" height="32" fill="none" xmlns="http://www.w3.org/2000/svg"><path d="M13.443 18.825s4.877.149 6.804 0c1.927-.297 1.482-1.635 1.482-1.635l-.094-.565-1.555-4.679s-.574-2.19-1.167-2.784c-.593-.594-1.927-.594-1.927-.594s-4.001-.149-5.632-1.784c-1.63-1.635-.592-2.973-.148-4.46.445-1.338-.889-1.04-.889-1.04-3.409.743-6.67 4.46-6.67 4.46l-1.333.445C.98 7.081.832 7.676 1.128 9.311c.297 1.635 2.816 3.865 2.816 3.865l15.71 15.014s3.853 4.46 6.076 2.23c0 0 .89-.743.445-1.635S21.433 18.23 21.433 18.23" stroke="#408BFC" stroke-width="1.444" stroke-miterlimit="10"/><path d="M19.988 11.917s.148-2.824-.297-4.608c0 0 0-.595-1.037-.298-.89.298-1.927 1.041-2.52 1.636M26.212 29.011s-1.186 1.933-2.223 1.041c-1.037-.892-6.225-5.5-8.448-8.474-2.223-2.973-4.742-6.243-6.817-8.77C6.649 10.28 3.98 6.862 3.833 5.672" stroke="#408BFC" stroke-width="1.444" stroke-miterlimit="10"/><path d="M7.983 12.065s1.186-1.933.445-4.014C7.686 5.97 7.094 4.186 7.094 2.848M20.958 14.823l-2.816.446M20.366 12.496l-2.816.447" stroke="#408BFC" stroke-width="1.444" stroke-miterlimit="10"/></svg>