<svg width="20" height="36" fill="none" xmlns="http://www.w3.org/2000/svg"><path d="M16.25.801V.8H4.45A3.539 3.539 0 0 0 .915 4.335V31.49a3.539 3.539 0 0 0 3.535 3.535h11.715A3.539 3.539 0 0 0 19.7 31.49V4.335A3.54 3.54 0 0 0 16.25.801ZM4.45 2.325h11.715c1.108 0 2.01.902 2.01 2.01v.876H2.44v-.876c0-1.108.902-2.01 2.01-2.01Zm13.725 4.411V29.09H2.44V6.736h15.735Zm-2.01 26.765H4.45a2.012 2.012 0 0 1-2.01-2.01v-.876h15.735v.876c0 1.108-.901 2.01-2.01 2.01Z" fill="#4F6258" stroke="#4F6258" stroke-width=".169"/><path d="M11.485 32.064a1.178 1.178 0 1 1-2.356 0 1.178 1.178 0 0 1 2.356 0Z" fill="#4F6258"/></svg>