<svg width="31" height="32" viewBox="0 0 31 32" fill="none" xmlns="http://www.w3.org/2000/svg">
<path d="M27.9363 3.37702C25.2903 0.731014 21.0737 0.661012 18.5141 3.22064L2.87484 18.8599C0.315227 21.4195 0.385213 25.6361 3.03122 28.2821C5.67729 30.9282 9.8939 30.9982 12.4535 28.4385L28.0927 12.7993C30.6788 10.2661 30.5824 6.02307 27.9363 3.37702Z" stroke="#ECC75C" stroke-width="1.81003" stroke-miterlimit="10" stroke-linejoin="round"/>
<path d="M27.9363 3.37702C25.2903 0.731014 21.0736 0.661012 18.5141 3.22064L13.8812 7.85357C11.3216 10.4131 11.3916 14.6298 14.0375 17.2757C16.6836 19.9218 20.9002 19.9918 23.4598 17.4322L28.0927 12.7993C30.6787 10.2661 30.5823 6.02307 27.9363 3.37702Z" stroke="#ECC75C" stroke-width="1.81003" stroke-miterlimit="10" stroke-linejoin="round"/>
<path d="M26.3623 5.74521C27.606 6.98887 28.3625 8.66678 26.3659 10.6633" stroke="#ECC75C" stroke-width="1.81003" stroke-miterlimit="10" stroke-linecap="round" stroke-linejoin="round"/>
</svg>
